<svg width="3447" height="1283" viewBox="0 0 3447 1283" fill="none" xmlns="http://www.w3.org/2000/svg">
<path d="M0 0H3447V1283H0V0Z" fill="#1B1F2F"/>
<path d="M1294 763C1294.67 742.667 1299.83 724.5 1309.5 708.5C1319.5 692.5 1332.67 679.833 1349 670.5C1365.33 661.167 1383.33 656.5 1403 656.5C1421.33 656.5 1435 659.333 1444 665C1453.33 670.667 1456.83 677.833 1454.5 686.5C1453.5 691.5 1451.5 695.167 1448.5 697.5C1445.5 699.5 1442 700.667 1438 701C1434 701 1429.67 700.667 1425 700C1404.67 696.667 1386.5 697.167 1370.5 701.5C1354.5 705.833 1341.83 713.333 1332.5 724C1323.17 734.667 1318.5 747.667 1318.5 763H1294ZM1295.5 933C1288.5 933 1283 931.167 1279 927.5C1275 923.5 1273 917.833 1273 910.5V682C1273 675 1275 669.5 1279 665.5C1283 661.5 1288.5 659.5 1295.5 659.5C1303.17 659.5 1308.83 661.5 1312.5 665.5C1316.5 669.167 1318.5 674.667 1318.5 682V910.5C1318.5 917.5 1316.5 923 1312.5 927C1308.83 931 1303.17 933 1295.5 933ZM1849.79 932.5C1840.12 932.5 1832.79 927.5 1827.79 917.5L1720.29 689.5C1717.62 684.167 1717.29 679 1719.29 674C1721.29 669 1725.29 665.167 1731.29 662.5C1736.29 659.833 1741.46 659.5 1746.79 661.5C1752.12 663.167 1756.12 666.5 1758.79 671.5L1860.79 891.5H1838.29L1938.79 671.5C1941.46 666.167 1945.62 662.667 1951.29 661C1956.96 659.333 1962.62 659.667 1968.29 662C1973.62 664.667 1977.29 668.667 1979.29 674C1981.29 679 1980.96 684 1978.29 689L1871.29 917.5C1866.62 927.5 1859.46 932.5 1849.79 932.5ZM2402.18 935C2375.51 935 2351.68 929.167 2330.68 917.5C2310.01 905.5 2293.68 889.167 2281.68 868.5C2270.01 847.5 2264.18 823.5 2264.18 796.5C2264.18 769.167 2270.01 745.167 2281.68 724.5C2293.68 703.5 2310.01 687.167 2330.68 675.5C2351.68 663.5 2375.51 657.5 2402.18 657.5C2428.84 657.5 2452.51 663.5 2473.18 675.5C2494.18 687.167 2510.51 703.5 2522.18 724.5C2534.18 745.167 2540.34 769.167 2540.68 796.5C2540.68 823.5 2534.68 847.5 2522.68 868.5C2510.68 889.167 2494.34 905.5 2473.68 917.5C2453.01 929.167 2429.18 935 2402.18 935ZM2402.18 894C2420.51 894 2436.68 889.833 2450.68 881.5C2464.68 873.167 2475.68 861.667 2483.68 847C2491.68 832.333 2495.68 815.5 2495.68 796.5C2495.68 777.5 2491.68 760.667 2483.68 746C2475.68 731 2464.68 719.333 2450.68 711C2436.68 702.667 2420.51 698.5 2402.18 698.5C2384.18 698.5 2368.01 702.667 2353.68 711C2339.68 719.333 2328.68 731 2320.68 746C2312.68 760.667 2308.68 777.5 2308.68 796.5C2308.68 815.5 2312.68 832.333 2320.68 847C2328.68 861.667 2339.68 873.167 2353.68 881.5C2368.01 889.833 2384.18 894 2402.18 894ZM2960.55 935C2938.55 935 2917.72 931.667 2898.05 925C2878.38 918 2862.88 908.5 2851.55 896.5C2847.22 891.5 2845.38 886 2846.05 880C2846.72 874 2849.72 868.833 2855.05 864.5C2860.72 860.167 2866.55 858.333 2872.55 859C2878.55 859.667 2883.55 862.333 2887.55 867C2894.22 874.333 2903.88 880.667 2916.55 886C2929.55 891.333 2943.72 894 2959.05 894C2980.72 894 2996.72 890.5 3007.05 883.5C3017.72 876.167 3023.22 867.167 3023.55 856.5C3023.55 845.5 3018.38 836.333 3008.05 829C2997.72 821.333 2979.55 815.333 2953.55 811C2919.88 804.667 2895.38 794.833 2880.05 781.5C2864.72 768.167 2857.05 752 2857.05 733C2857.05 716 2861.72 702 2871.05 691C2880.72 679.667 2893.22 671.333 2908.55 666C2924.22 660.333 2940.72 657.5 2958.05 657.5C2980.05 657.5 2999.38 661.167 3016.05 668.5C3032.72 675.5 3046.05 685.333 3056.05 698C3060.38 703 3062.22 708.167 3061.55 713.5C3061.22 718.833 3058.55 723.333 3053.55 727C3048.55 730 3042.72 731 3036.05 730C3029.72 729 3024.38 726.167 3020.05 721.5C3011.72 712.833 3002.38 706.833 2992.05 703.5C2982.05 699.833 2970.38 698 2957.05 698C2941.05 698 2927.72 701 2917.05 707C2906.72 713 2901.55 721.167 2901.55 731.5C2901.55 738.167 2903.22 744 2906.55 749C2910.22 754 2916.88 758.667 2926.55 763C2936.22 767 2950.05 770.667 2968.05 774C2993.05 778.667 3012.72 784.833 3027.05 792.5C3041.72 800.167 3052.22 809.167 3058.55 819.5C3064.88 829.833 3068.05 841.5 3068.05 854.5C3068.05 869.833 3063.72 883.667 3055.05 896C3046.72 908 3034.55 917.5 3018.55 924.5C3002.55 931.5 2983.22 935 2960.55 935Z" fill="white"/>
<rect x="622.474" y="367.911" width="229.011" height="666.374" rx="114.505" transform="rotate(-24.8517 622.474 367.911)" fill="url(#paint0_linear_147_12)" stroke="black"/>
<circle cx="588.877" cy="818.763" r="113.377" fill="url(#paint1_linear_147_12)" stroke="black"/>
<defs>
<linearGradient id="paint0_linear_147_12" x1="736.816" y1="367.667" x2="736.816" y2="1035.04" gradientUnits="userSpaceOnUse">
<stop stop-color="#EAEAEA"/>
<stop offset="1" stop-color="#4F687B"/>
</linearGradient>
<linearGradient id="paint1_linear_147_12" x1="586.229" y1="681.051" x2="586.229" y2="845.246" gradientUnits="userSpaceOnUse">
<stop stop-color="#4F687B"/>
<stop offset="1" stop-color="#859BAA"/>
</linearGradient>
</defs>
</svg>
